# xmcd
#
# Track frame offsets:
#	150
#	16735
#	31113
#	50464
#	76404
#	91569
#	109070
#	127412
#	143097
#	160864
#
# Disc length: 2315 seconds
#
# Revision: 1
# Processed by: cddbd v1.5.2PL0 Copyright (c) Steve Scherf et al.
# Submitted via: audiograbber 1.83.01
#
DISCID=7209090a
DTITLE=Laurie-Ann Saumure - Laurie-Ann Saumure
DYEAR=1996
DGENRE=Country
TTITLE0=Heads Carolina, Tails California
TTITLE1=Poor, Poor Pitiful Me
TTITLE2=A Man's Home Is His Castle
TTITLE3=Heaven Help My Heart
TTITLE4=My Heart Has a History
TTITLE5=How Do I Live?
TTITLE6=You Can't Lose Me
TTITLE7=The Light in Your Eyes
TTITLE8=God Bless the Child
TTITLE9=Don't Fence Me In
EXTD=
EXTT0=
EXTT1=
EXTT2=
EXTT3=
EXTT4=
EXTT5=
EXTT6=
EXTT7=
EXTT8=
EXTT9=
PLAYORDER=
